<?xml version="1.0" encoding="iso-8859-1"?>
<!-- Generator: Adobe Illustrator 19.0.0, SVG Export Plug-In . SVG Version: 6.00 Build 0)  -->
<svg version="1.1" id="Capa_1" xmlns="http://www.w3.org/2000/svg" xmlns:xlink="http://www.w3.org/1999/xlink" x="0px" y="0px"
	 viewBox="0 0 511.999 511.999" style="enable-background:new 0 0 511.999 511.999;" xml:space="preserve">
<linearGradient id="SVGID_1_" gradientUnits="userSpaceOnUse" x1="0" y1="257.9998" x2="511.9995" y2="257.9998" gradientTransform="matrix(1 0 0 -1 0 513.9995)">
	<stop  offset="0" style="stop-color:#00F2FE"/>
	<stop  offset="0.021" style="stop-color:#03EFFE"/>
	<stop  offset="0.293" style="stop-color:#24D2FE"/>
	<stop  offset="0.554" style="stop-color:#3CBDFE"/>
	<stop  offset="0.796" style="stop-color:#4AB0FE"/>
	<stop  offset="1" style="stop-color:#4FACFE"/>
</linearGradient>
<path style="fill:url(#SVGID_1_);" d="M497.024,273.36c-3.408,0.884-85.203,21.64-236.02,21.64
	c-150.547,0-241.69-20.634-245.497-21.512c-10.763-2.484-17.475-13.222-14.99-23.985c2.481-10.759,13.216-17.474,23.973-14.993
	c0.367,0.084,15.81,3.561,43.968,7.627c3.062-13.831,12.72-55.055,27.721-96.888c10.847-30.248,22.304-54.588,34.053-72.347
	C147.748,46.425,167.186,33,188.004,33c13.939,0,29.467,5.501,47.471,16.819c12.981,8.16,29.876,8.197,43.041,0.099
	C297.016,38.534,312.223,33,325.004,33c23.218,0,44.666,16.714,63.747,49.679c12.353,21.339,24.245,50.044,35.35,85.315
	c3.316,10.536-2.535,21.766-13.071,25.083c-10.537,3.315-21.767-2.536-25.083-13.071C359.355,95.537,335.127,73,325.004,73
	c-0.785,0-8.175,0.308-25.526,10.985c-26.036,16.02-59.515,15.902-85.291-0.301C199.399,74.388,191.435,73,188.004,73
	c-8.7,0-29.901,18.061-54.174,85.751c-12.982,36.204-21.909,72.731-25.489,88.384c39.198,4.217,90.938,7.865,152.663,7.865
	c145.111,0,225.208-20.161,226-20.365c10.696-2.747,21.597,3.681,24.355,14.368C514.118,259.69,507.708,270.59,497.024,273.36z
	 M452.004,369v11c0,49.277-26.901,99-87,99c-23.654,0-43.233-8.43-58.191-25.056c-11.996-13.333-19.303-29.922-25.75-44.559
	c-10.011-22.729-15.387-31.885-23.891-33.922c-7.761,2.012-12.913,10.981-22.663,33.197c-6.478,14.761-13.819,31.492-25.895,44.974
	C193.538,470.465,173.819,479,150.004,479c-26.712,0-50.613-14.229-67.301-40.066C69.742,418.866,62.004,392.722,62.004,369
	c0-24.813,20.187-45,45-45c1.229,0,2.457,0.113,3.666,0.339l9.233,1.722c31.808,5.932,64.344,8.939,96.703,8.939h36.397h8h36.398
	c32.359,0,64.896-3.008,96.707-8.94l9.228-1.721c1.209-0.226,2.437-0.339,3.667-0.339C431.818,324,452.004,344.187,452.004,369z
	 M206.035,374.901c-31.315-0.588-62.708-3.782-93.465-9.518l-6.709-1.251c-2.208,0.518-3.857,2.504-3.857,4.868
	c0,29.229,18.261,70,48,70c26.231,0,34.868-16.771,47.877-46.414C200.472,386.684,203.103,380.687,206.035,374.901z M412.004,369
	c0-2.364-1.649-4.35-3.857-4.868l-6.704,1.25c-30.382,5.666-61.382,8.852-92.314,9.496c3.091,6.009,5.838,12.247,8.541,18.384
	C330.535,422.473,339.077,439,365.004,439c43.61,0,47-45.159,47-59V369z"/>
<g>
</g>
<g>
</g>
<g>
</g>
<g>
</g>
<g>
</g>
<g>
</g>
<g>
</g>
<g>
</g>
<g>
</g>
<g>
</g>
<g>
</g>
<g>
</g>
<g>
</g>
<g>
</g>
<g>
</g>
</svg>
