<svg viewBox="0 0 512 512" xmlns="http://www.w3.org/2000/svg" xmlns:xlink="http://www.w3.org/1999/xlink"><linearGradient id="a" gradientTransform="matrix(1 0 0 -1 0 -13022)" gradientUnits="userSpaceOnUse" x1="0" x2="512" y1="-13278" y2="-13278"><stop offset="0" stop-color="#00f1ff"/><stop offset=".231" stop-color="#00d8ff"/><stop offset=".5138" stop-color="#00c0ff"/><stop offset=".7773" stop-color="#00b2ff"/><stop offset="1" stop-color="#00adff"/></linearGradient><path d="m512 256c0 141.386719-114.613281 256-256 256s-256-114.613281-256-256 114.613281-256 256-256 256 114.613281 256 256zm0 0" fill="url(#a)"/><g fill="#fff"><path d="m256 456c-46.234375 0-90.390625-21.222656-124.335938-59.761719-32.144531-36.5-50.578124-84.1875-50.578124-130.832031v-123.855469c0-5.933593 3.496093-11.308593 8.917968-13.710937l159.132813-70.554688c3.851562-1.707031 8.25-1.714844 12.109375-.019531l160.699218 70.550781c5.449219 2.394532 8.96875 7.78125 8.96875 13.734375v123.855469c0 34.382812-9.78125 69.019531-28.289062 100.164062-4.234375 7.121094-13.4375 9.464844-20.558594 5.230469-7.121094-4.230469-9.464844-13.433593-5.230468-20.558593 15.75-26.507813 24.078124-55.84375 24.078124-84.835938v-114.058594l-145.667968-63.953125-144.160156 63.914063v114.097656c0 84.050781 69.070312 160.59375 144.914062 160.59375 26.824219 0 53.050781-8.765625 75.835938-25.347656 6.695312-4.875 16.078124-3.398438 20.953124 3.300781s3.398438 16.078125-3.300781 20.953125c-27.949219 20.34375-60.277343 31.09375-93.488281 31.09375zm0 0"/><path d="m233.628906 331.359375c-7.671875 0-14.914062-2.886719-20.507812-8.207031l-55.316406-53.207032c-5.96875-5.742187-6.15625-15.238281-.410157-21.207031 5.742188-5.972656 15.238281-6.15625 21.207031-.414062l55.027344 52.929687 97.671875-122.039062c5.175781-6.46875 14.617188-7.519532 21.085938-2.339844 6.464843 5.175781 7.511719 14.613281 2.335937 21.082031l-98.3125 122.84375c-.171875.214844-.351562.429688-.535156.632813-5.425781 6.058594-12.886719 9.574218-21.011719 9.902344-.414062.015624-.824219.023437-1.234375.023437zm0 0"/></g></svg>